HIERARCHY
ROOT SpineBase
{
  OFFSET 0.000000 0.000000 0.000000
  CHANNELS 6 Xposition Yposition Zposition Zrotation Xrotation Yrotation
  JOINT SpineMid
  {
    OFFSET -0.000000 28.495269 0.000000
    CHANNELS 3 Zrotation Xrotation Yrotation
    JOINT SpineShoulder
    {
      OFFSET 0.054431 21.259988 -0.639709
      CHANNELS 3 Zrotation Xrotation Yrotation
      JOINT Neck
      {
        OFFSET 0.050315 7.044090 -0.525373
        CHANNELS 3 Zrotation Xrotation Yrotation
        JOINT Head
        {
          OFFSET 1.079604 11.877410 5.257122
          CHANNELS 3 Zrotation Xrotation Yrotation
          End Site
          {
            OFFSET 0 0 0
          }
        }
      }
      JOINT ShoulderLeft
      {
        OFFSET -10.945311 -4.802337 7.729778
        CHANNELS 3 Zrotation Xrotation Yrotation
        JOINT ElbowLeft
        {
          OFFSET -6.714343 -18.239249 5.584306
          CHANNELS 3 Zrotation Xrotation Yrotation
          JOINT WristLeft
          {
            OFFSET 2.382177 -26.638603 3.424237
            CHANNELS 3 Zrotation Xrotation Yrotation
            JOINT HandLeft
            {
              OFFSET 0.085364 -1.250819 2.705427
              CHANNELS 3 Zrotation Xrotation Yrotation
              JOINT HandTipLeft
              {
                OFFSET -0.238076 -0.104153 -0.476847
                CHANNELS 3 Zrotation Xrotation Yrotation
                End Site
                {
                  OFFSET 0 0 0
                }
              }
              JOINT ThumbLeft
              {
                OFFSET -0.107235 0.289577 -1.591902
                CHANNELS 3 Zrotation Xrotation Yrotation
                End Site
                {
                  OFFSET 0 0 0
                }
              }
            }
          }
        }
      }
      JOINT ShoulderRight
      {
        OFFSET 2.194190 -6.137549 -7.655326
        CHANNELS 3 Zrotation Xrotation Yrotation
        JOINT ElbowRight
        {
          OFFSET -5.277151 -24.936510 -3.313502
          CHANNELS 3 Zrotation Xrotation Yrotation
          JOINT WristRight
          {
            OFFSET -8.086035 -18.925019 0.656491
            CHANNELS 3 Zrotation Xrotation Yrotation
            JOINT HandRight
            {
              OFFSET -0.316148 -4.344965 1.045801
              CHANNELS 3 Zrotation Xrotation Yrotation
              JOINT HandTipRight
              {
                OFFSET -3.113711 -5.789455 -0.019918
                CHANNELS 3 Zrotation Xrotation Yrotation
                End Site
                {
                  OFFSET 0 0 0
                }
              }
              JOINT ThumbRight
              {
                OFFSET 3.676514 -1.421988 0.049725
                CHANNELS 3 Zrotation Xrotation Yrotation
                End Site
                {
                  OFFSET 0 0 0
                }
              }
            }
          }
        }
      }
    }
  }
  JOINT HipLeft
  {
    OFFSET -4.112590 0.593015 -1.153980
    CHANNELS 3 Zrotation Xrotation Yrotation
    JOINT KneeLeft
    {
      OFFSET -5.146307 -13.245873 15.056447
      CHANNELS 3 Zrotation Xrotation Yrotation
      JOINT AnkleLeft
      {
        OFFSET 6.574843 -40.144901 -4.366778
        CHANNELS 3 Zrotation Xrotation Yrotation
        JOINT FootLeft
        {
          OFFSET -7.069186 -2.841669 -8.450529
          CHANNELS 3 Zrotation Xrotation Yrotation
          End Site
          {
            OFFSET 0 0 0
          }
        }
      }
    }
  }
  JOINT HipRight
  {
    OFFSET 3.793726 0.626344 -4.786115
    CHANNELS 3 Zrotation Xrotation Yrotation
    JOINT KneeRight
    {
      OFFSET -7.065904 -24.091658 2.791614
      CHANNELS 3 Zrotation Xrotation Yrotation
      JOINT AnkleRight
      {
        OFFSET 5.261116 -29.250325 3.361051
        CHANNELS 3 Zrotation Xrotation Yrotation
        JOINT FootRight
        {
          OFFSET -2.415052 -8.775022 1.849630
          CHANNELS 3 Zrotation Xrotation Yrotation
          End Site
          {
            OFFSET 0 0 0
          }
        }
      }
    }
  }
}
MOTION
Frames: 5
Frame Time: 0.033333
-52.400507 73.577145 377.594777 7.172709 -6.409336 20.347123 0.070586 0.109358 -19.722500 -0.029529 0.403782 0.318430 19.211392 7.131466 -15.310070 0.000000 0.000000 0.000000 -6.309049 5.918631 -0.032469 52.973803 35.445819 -8.052110 -38.262381 14.816653 23.924726 -71.833046 -55.960875 -89.065213 0.000000 0.000000 0.000000 0.000000 0.000000 0.000000 7.117867 8.257935 -4.454648 -8.918118 -2.616241 2.387067 -16.031944 -9.749381 -2.902745 24.237880 -1.321334 6.367950 0.000000 0.000000 0.000000 0.000000 0.000000 0.000000 21.196331 37.127329 -34.454558 -19.245595 -42.884223 -5.555051 34.632630 -22.125882 12.720112 0.000000 0.000000 0.000000 -10.906626 20.863224 -21.939422 37.452464 -0.470511 11.138166 -24.738636 41.782655 -20.677045 0.000000 0.000000 0.000000
-55.994349 74.325780 378.912671 7.215172 -7.144540 19.707142 0.111126 0.105733 -19.032876 -0.018663 0.406562 0.324832 19.483838 6.115995 -15.366192 0.000000 0.000000 0.000000 -6.353910 6.638901 0.005253 52.949205 35.425940 -8.063034 -38.361852 14.155969 21.470993 -65.465781 -56.719016 -82.430997 0.000000 0.000000 0.000000 0.000000 0.000000 0.000000 8.056338 8.660448 -4.778103 -12.703848 -5.208929 3.437777 -14.797586 -3.410208 -3.707953 21.333562 -5.485498 8.641022 0.000000 0.000000 0.000000 0.000000 0.000000 0.000000 22.708704 41.086670 -39.384952 -11.911650 -46.405393 1.183506 28.332337 -19.882065 -1.887353 0.000000 0.000000 0.000000 -8.881773 16.699637 -20.346772 26.367811 1.099271 6.758852 -27.085713 40.833030 -17.540371 0.000000 0.000000 0.000000
-60.500796 74.874792 379.817567 6.822630 -7.739606 18.430829 0.029486 0.131960 -17.752579 -0.070543 0.380167 0.309417 18.342310 7.589620 -14.793797 0.000000 0.000000 0.000000 -5.780138 7.247727 0.046593 52.925725 35.404721 -8.077114 -38.376171 15.576423 21.671726 -66.557233 -56.626984 -82.666135 0.000000 0.000000 0.000000 0.000000 0.000000 0.000000 9.145286 9.106077 -5.006654 -14.940437 -7.380983 4.248215 -17.133153 0.187203 -4.886417 27.331444 -8.413750 11.376734 0.000000 0.000000 0.000000 0.000000 0.000000 0.000000 24.481659 45.086738 -44.163245 -6.315113 -49.764152 7.483672 25.796023 -17.895682 -7.973340 0.000000 0.000000 0.000000 -2.546878 10.655810 -18.245017 10.061794 3.948953 2.353920 -29.125611 44.212780 -15.288496 0.000000 0.000000 0.000000
-65.587189 75.310875 379.809408 5.459790 -7.519337 18.681439 -0.034743 0.072596 -18.140599 -0.095761 0.365022 0.251908 18.499005 7.661228 -14.010651 0.000000 0.000000 0.000000 -4.327589 7.088891 0.068064 52.907608 35.386530 -8.091518 -38.259261 16.789063 27.749781 -73.996583 -52.315695 -89.001799 0.000000 0.000000 0.000000 0.000000 0.000000 0.000000 12.109533 8.590485 -5.279049 -16.339650 -8.193885 4.854621 -16.731300 4.442698 -4.738617 24.297324 -14.697530 14.238126 0.000000 0.000000 0.000000 0.000000 0.000000 0.000000 26.630604 46.771029 -50.260662 -2.727537 -53.877839 12.615378 26.106305 -13.817003 -8.621753 0.000000 0.000000 0.000000 4.857620 3.719474 -17.165750 -5.399992 7.414704 -0.634751 -37.257456 48.018235 -10.409529 0.000000 0.000000 0.000000
-70.853859 75.538427 379.275948 3.850700 -6.464583 18.512314 0.005490 0.029612 -18.163823 -0.078689 0.307770 0.185446 20.181911 4.163993 -13.120047 0.000000 0.000000 0.000000 -2.776983 6.090647 0.087583 52.893811 35.370008 -8.107624 -38.348513 18.513219 32.549252 -84.013122 -50.193303 -95.198797 0.000000 0.000000 0.000000 0.000000 0.000000 0.000000 14.622960 6.865638 -4.982228 -17.323363 -8.404479 5.330249 -19.039377 5.478351 -5.149620 22.040093 -15.539041 14.487747 0.000000 0.000000 0.000000 0.000000 0.000000 0.000000 26.533751 47.410922 -55.036368 0.396701 -58.070142 17.507710 29.414786 -10.869693 -1.223408 0.000000 0.000000 0.000000 12.826967 -6.115210 -13.649751 -19.459849 15.996845 -1.897473 -37.009556 48.747406 -9.686435 0.000000 0.000000 0.000000
